<?xml version="1.0" standalone="no"?>
<!DOCTYPE svg PUBLIC "-//W3C//DTD SVG 20010904//EN"
 "http://www.w3.org/TR/2001/REC-SVG-20010904/DTD/svg10.dtd">
<svg version="1.0" xmlns="http://www.w3.org/2000/svg"
 width="512.000000pt" height="512.000000pt" viewBox="0 0 512.000000 512.000000"
 preserveAspectRatio="xMidYMid meet">

<g transform="translate(0.000000,512.000000) scale(0.100000,-0.100000)"
fill="#000000" stroke="none">
<path d="M2870 4413 c-19 -2 -84 -14 -145 -27 -60 -13 -144 -29 -185 -36 -113
-18 -162 -37 -280 -108 -41 -25 -110 -80 -153 -121 -153 -147 -240 -318 -287
-566 -26 -139 -79 -347 -91 -359 -15 -17 -10 -25 19 -28 22 -2 28 -9 30 -34 3
-29 0 -32 -30 -38 -74 -14 -73 -11 -73 -232 1 -197 1 -199 27 -244 15 -25 48
-65 73 -90 l46 -45 122 0 c114 1 125 3 173 28 55 30 167 141 198 197 31 56 48
120 50 190 l1 65 40 20 c45 22 99 24 165 6 62 -17 72 -28 64 -65 -12 -50 -4
-215 14 -286 13 -55 24 -73 69 -118 30 -30 78 -64 110 -79 52 -24 70 -27 178
-28 106 0 126 3 170 24 87 41 162 107 181 160 9 25 25 68 35 95 15 39 18 62
12 119 l-6 70 33 27 c27 22 32 31 26 53 -7 28 -26 37 -26 13 0 -15 -38 -66
-49 -66 -8 0 -41 76 -41 93 0 4 10 7 23 8 13 0 16 2 7 6 -8 2 -33 13 -55 23
-94 45 -169 62 -291 67 -148 7 -228 -13 -313 -76 l-53 -40 -36 19 c-69 37
-132 45 -211 25 l-70 -17 -25 29 c-20 21 -24 35 -20 59 7 37 -11 48 -61 38
-32 -6 -266 13 -275 23 -8 8 134 136 180 162 40 22 40 22 40 2 0 -16 6 -21 28
-21 33 0 171 44 226 72 31 16 51 19 90 14 27 -3 54 -10 60 -16 7 -7 6 -10 -2
-10 -7 0 -12 -5 -12 -11 0 -17 112 -3 217 27 49 13 144 52 213 85 74 37 126
57 128 50 2 -6 24 -11 48 -11 46 0 54 -9 29 -30 -24 -20 -8 -29 33 -18 48 13
110 45 145 74 16 13 35 24 43 24 21 0 44 -42 74 -139 33 -104 46 -131 64 -131
18 0 29 -31 62 -170 15 -63 33 -122 40 -130 19 -23 104 -307 104 -349 0 -51
34 -209 47 -222 17 -17 31 -3 68 71 47 94 86 112 146 69 l29 -21 14 34 c20 47
71 249 87 343 31 181 11 463 -48 655 -51 170 -110 263 -199 315 -26 15 -66 47
-89 71 -37 39 -47 44 -86 44 -24 1 -55 7 -69 15 -14 8 -37 14 -53 15 -23 0
-35 12 -81 83 -60 93 -96 130 -164 169 -181 107 -340 148 -502 131z m-785
-1313 c3 -5 23 -10 43 -10 46 0 109 -29 142 -64 21 -23 25 -39 28 -104 2 -42
-1 -89 -7 -104 l-10 -27 -56 24 c-72 32 -84 32 -82 -2 2 -24 -2 -29 -26 -31
-39 -5 -48 25 -16 51 l24 20 -51 -5 c-83 -8 -186 -69 -160 -95 4 -4 12 0 17 9
10 19 70 58 89 58 9 0 10 -13 5 -50 -4 -29 -2 -63 4 -83 10 -30 18 -35 62 -45
28 -7 59 -12 70 -12 28 0 23 -16 -13 -43 -64 -47 -108 -61 -193 -61 -67 0 -89
5 -131 27 -129 66 -164 245 -85 429 22 52 81 99 146 116 52 13 192 15 200 2z
m1008 -35 c74 -7 175 -44 202 -73 34 -37 61 -126 46 -151 -7 -10 -13 -11 -29
-2 l-21 11 19 -42 c22 -47 26 -103 9 -114 -6 -3 -8 -17 -5 -30 13 -50 -75
-148 -171 -190 -40 -18 -72 -24 -123 -24 -222 0 -364 152 -346 369 3 42 11 93
16 113 18 65 108 121 217 137 55 8 86 7 186 -4z"/>
<path d="M1833 3060 c-22 -9 -23 -15 -23 -113 0 -126 9 -199 24 -194 14 5 45
176 45 255 1 65 -3 69 -46 52z"/>
<path d="M2937 2790 c-81 -13 -170 -71 -152 -100 4 -7 21 2 47 25 48 44 64 41
60 -11 -4 -45 20 -109 43 -118 43 -16 213 3 254 29 5 3 12 20 16 38 12 57 16
66 33 69 13 3 9 9 -17 26 -62 38 -187 57 -284 42z m88 -35 c0 -24 -39 -33 -61
-14 -14 12 -14 14 3 26 25 19 58 12 58 -12z"/>
<path d="M2912 3201 c-47 -8 -68 -23 -57 -41 5 -9 32 -10 94 -5 108 8 195 -6
278 -45 61 -28 83 -31 83 -10 0 15 -70 55 -135 78 -67 23 -197 34 -263 23z"/>
<path d="M510 2503 c-54 -36 -94 -81 -121 -138 -45 -94 -35 -167 34 -242 69
-75 178 -115 257 -95 47 12 73 4 84 -23 4 -12 -7 -22 -42 -38 -39 -18 -65 -22
-152 -22 -101 1 -108 2 -176 37 -46 24 -79 48 -92 70 -19 29 -22 30 -28 14
-21 -54 -2 -206 36 -301 5 -11 16 -42 25 -70 32 -95 62 -162 76 -171 6 -3 63
20 127 52 100 50 129 71 197 139 73 73 126 154 149 228 3 10 16 17 33 18 19 0
-5 13 -74 40 -101 40 -105 42 -190 135 -49 52 -94 94 -101 94 -7 0 -21 15 -33
33 -31 49 -23 139 19 206 26 42 28 51 14 50 -9 0 -28 -7 -42 -16z"/>
<path d="M1370 2460 c0 -18 90 -100 109 -100 18 0 41 28 47 56 6 29 4 31 -18
27 -15 -3 -30 3 -42 16 -27 29 -96 30 -96 1z"/>
<path d="M2322 2403 c9 -46 117 -80 169 -53 34 19 20 30 -36 30 -37 0 -70 7
-96 21 -38 19 -40 19 -37 2z"/>
<path d="M1306 2282 c-11 -19 16 -61 47 -72 17 -5 38 -17 48 -26 16 -14 20
-14 48 0 31 17 51 43 51 69 0 14 -11 17 -146 34 -23 3 -44 0 -48 -5z"/>
<path d="M2160 2202 c0 -6 12 -25 26 -42 24 -28 50 -43 137 -79 44 -18 244
-14 308 6 l54 17 -70 7 c-38 4 -107 11 -152 15 -46 4 -83 10 -83 15 0 15 150
21 242 9 51 -7 109 -14 129 -17 36 -5 89 18 89 38 0 5 -84 9 -187 9 -104 1
-222 5 -263 10 -152 19 -230 23 -230 12z"/>
<path d="M1820 2165 c1 -22 7 -49 15 -59 8 -11 15 -28 15 -37 0 -27 112 -189
177 -255 70 -70 140 -129 168 -138 11 -3 31 -15 45 -26 23 -17 23 -19 7 -26
-23 -9 -105 10 -226 53 -153 54 -156 46 -28 -81 114 -114 219 -185 318 -215
40 -13 110 -38 154 -57 89 -37 197 -64 253 -64 69 0 247 38 397 85 83 26 179
54 215 63 77 20 87 43 30 73 -27 15 -56 19 -136 19 -116 0 -114 -1 -114 84 0
59 15 80 65 92 17 3 46 14 65 24 19 9 67 32 105 50 39 17 120 65 180 104 61
40 136 85 167 100 34 16 70 43 88 66 30 37 30 39 11 49 -27 15 -47 14 -83 -5
-17 -9 -52 -18 -77 -21 -24 -2 -64 -12 -87 -22 -39 -18 -142 -91 -209 -150
-49 -43 -84 -64 -210 -128 -282 -142 -480 -166 -775 -92 -124 32 -172 60 -281
166 -111 108 -168 188 -216 306 -31 78 -33 80 -33 42z"/>
<path d="M1238 2107 c-23 -13 -34 -27 -30 -34 10 -16 114 -41 137 -33 47 18
71 75 26 63 -10 -3 -32 2 -49 11 -39 20 -40 20 -84 -7z"/>
<path d="M450 1447 c10 -11 134 -57 155 -57 11 0 25 -4 31 -8 5 -5 27 -14 49
-20 223 -62 462 -139 503 -163 18 -10 39 -19 46 -19 7 0 50 -19 97 -43 46 -23
108 -53 137 -66 62 -26 142 -95 142 -122 0 -10 5 -21 10 -24 15 -9 12 8 -10
69 -35 92 -46 99 -350 230 -165 72 -281 106 -565 170 -110 25 -211 48 -225 52
-14 4 -23 4 -20 1z"/>
<path d="M1701 664 c0 -11 3 -14 6 -6 3 7 2 16 -1 19 -3 4 -6 -2 -5 -13z"/>
</g>
</svg>
